<svg xmlns="http://www.w3.org/2000/svg" xmlns:xlink="http://www.w3.org/1999/xlink" width="371.945" height="74" viewBox="0 0 371.945 74"><defs><style>.a{fill:url(#a);}.b{fill:url(#b);}.c{fill:url(#c);}.d{fill:url(#d);}.e{fill:url(#e);}.f{fill:#366af7;font-family:ShreeDev0714-Italic, 'Shree Devanagari 714';font-style:italic;}.f,.g{font-size:50px;}.g{fill:#343436;font-family:Poppins-Regular, Poppins;}</style><linearGradient id="a" x1="0.535" y1="0.248" x2="0.421" y2="0.865" gradientUnits="objectBoundingBox"><stop offset="0" stop-color="#366af7"/><stop offset="1" stop-color="#2350c9"/></linearGradient><linearGradient id="b" x1="0.583" x2="0.205" y2="0.925" gradientUnits="objectBoundingBox"><stop offset="0" stop-color="#fff"/><stop offset="1" stop-color="#d9d9d9"/></linearGradient><linearGradient id="c" x1="0.5" y1="0" x2="0.5" y2="1" xlink:href="#a"/><linearGradient id="d" x1="0.717" y1="0.188" x2="0.43" y2="0.963" xlink:href="#a"/><linearGradient id="e" x1="0.814" x2="-0.461" y2="0.571" gradientUnits="objectBoundingBox"><stop offset="0" stop-color="#fff"/><stop offset="1" stop-color="#c9c9c9"/></linearGradient></defs><g transform="translate(-345.637 -99.357)"><path class="a" d="M-2442.325-425.54a49.879,49.879,0,0,1,39.395,22.8c-11.833-7.487-21.489-8.222-25.1-8.107.575,1.232-4.849,9.56-4.849,9.56l-13.727-22.9Z" transform="translate(2804.375 559.894)"/><path class="b" d="M-2438.323-440.371s-7.78,1.423-7.868,3.611c-1.672,1.431.574,12.3,9.013,27.86-2.849-2.33-7.676-5.331-10.935-5.3-4.913-.142-6.7,7.623-6.7,7.623l-4.028-12.814,2.247-17.893,7.231-9.855,4.813,3.141Z" transform="translate(2808.698 567.52)"/><path class="c" d="M-2465.287-434.96a31.044,31.044,0,0,1,11.147-25.573c-.061-.081-1.437,2.006,2.148,5.805a61.745,61.745,0,0,0,12.194,9.391c-.587.569-2.309.316-4.221-.728a19.969,19.969,0,0,0-8.658-2.45c-.016.359,3.287,3.178,3.287,3.178l-3.287.179,3.287,3.323-4.75-1.3s-8.189,8.432-2.95,31.887C-2465.948-425-2465.287-434.96-2465.287-434.96Z" transform="translate(2811 572.251)"/><path class="d" d="M-2403.223-429.661s19.483-5.945,21.771-17.729-11.558-19.624-15.084-20.241-13.18-2.112-20.3,5.982c4.2.513,9.684,1.8,13.611,8.454,8.334,12.791-3.179,21.415-3.179,21.415Z" transform="translate(2791.277 573)"/><path class="e" d="M12.77,10.268l-.357,2.884C8.621,8.06,3.786,6.967,0,6.5,7.118-1.59,16.771-.094,20.3.522c1.5.263,4.876,1.835,8.079,4.466l-.527,4.565-8.6-4.813,2.414,9.87Z" transform="translate(374.443 104.846)"/></g><text class="f" transform="translate(138.945 53)"><tspan x="-67.702" y="0">Swiftly</tspan></text><text class="g" transform="translate(291.945 53)"><tspan x="-79.225" y="0">Stable</tspan></text></svg>