<svg xmlns="http://www.w3.org/2000/svg" width="14.346" height="13.242" viewBox="0 0 14.346 13.242"><defs><style>.a{fill:#fff;}</style></defs><path class="a" d="M10.72,7.442V4.5H3.375V17.742H17.721V7.442ZM6.313,16.27H4.844V14.8H6.313Zm0-2.942H4.844V11.856H6.313Zm0-2.942H4.844V8.914H6.313Zm0-2.945H4.844V5.969H6.313ZM9.251,16.27H7.782V14.8H9.251Zm0-2.942H7.782V11.856H9.251Zm0-2.942H7.782V8.914H9.251Zm0-2.945H7.782V5.969H9.251Zm7,8.828H10.72V14.8h1.469V13.328H10.72V11.856h1.469V10.383H10.72V8.914h5.531Zm-1.3-5.883H13.486v1.473h1.469Zm0,2.942H13.486V14.8h1.469Z" transform="translate(-3.375 -4.5)"/></svg>