<svg xmlns="http://www.w3.org/2000/svg" xmlns:xlink="http://www.w3.org/1999/xlink" width="124.176" height="130.129" viewBox="0 0 124.176 130.129"><defs><style>.a{fill:#fff;}.b{fill:#343436;opacity:0.195;}.c{fill:url(#c);}.d{fill:#f4f4f4;}.e{fill:#668ef8;}.f{filter:url(#a);}</style><filter id="a" x="0" y="6.834" width="85.413" height="123.295" filterUnits="userSpaceOnUse"><feOffset dx="-10" dy="3" input="SourceAlpha"/><feGaussianBlur stdDeviation="6" result="b"/><feFlood/><feComposite operator="in" in2="b"/><feComposite in="SourceGraphic"/></filter><linearGradient id="c" x1="0.5" y1="0.984" x2="0.5" y2="0.037" gradientUnits="objectBoundingBox"><stop offset="0" stop-color="#b0c3f4"/><stop offset="1" stop-color="#c4d4ff"/></linearGradient></defs><g><rect class="a" width="118" height="121"/><g transform="matrix(0.966, -0.259, 0.259, 0.966, -657.535, -486.055)"><g class="f" transform="matrix(0.97, 0.26, -0.26, 0.97, 503.36, 638.08)"><path class="b" d="M-12057.439-23508.168c-1.773,1.268-4.87.949-3.953,3.387s4.249,3.734,5.306,4.18.605,1.922,1.154,3.441,1.86,7.637,3.319,8.947,5.984,8.334,11.333,10.605,12.541,5.9,13.458,6.516,3.212,2.135,2.263,3.594-15.282,16.723-13.973,25.15,3.14,15.186,2.832,15.254-4.961,3.033-3.679,5.445,10.268-1.492,12.557-2.326,10.481-4.023,12.5-12.2,2.8-14.754,1.649-19.127-7.979-13.369-7.979-13.369-1.406-6.217-2.793-8.939-5.013-9.84-7.655-12.156-5.146-8.645-6.418-10.338-9.607-6.871-11.214-7.363S-12057.439-23508.168-12057.439-23508.168Z" transform="translate(12089.56 23530)"/></g><g transform="translate(523 667)"><path class="c" d="M331.726,261.661l1.667,8.893,5.35,7.99,6.67,5,4.03,3.474,2.015,3.2.695,3.96v21.955L334.64,330.26h40.232l-15.7-18.505-1.737-15.216v-6.322l3.2-3.752,7.434-5.836,5.628-5.7,3.335-6.461-.486-6.461Z" transform="translate(-325.579 -245.81)"/><g transform="translate(3.784 6.8)"><path class="d" d="M343.895,211.247h24.139c1.2,0,1.213,0,1.2,1.177-.024,3.229.094,6.469-.128,9.686a21.837,21.837,0,0,1-7.768,15.542c-4.235,3.65-8.575,7.178-12.874,10.753-1.33,1.105-1.358,2.242-.034,3.347,4.133,3.447,8.29,6.865,12.4,10.335a22.669,22.669,0,0,1,8.368,17.29c.091,2.839,0,5.683.038,8.524.012.827-.264,1.072-1.084,1.048-1.972-.057-3.949.018-5.921-.043a2.7,2.7,0,0,1-1.53-.535c-4.445-3.632-8.845-7.32-13.282-10.961a5.444,5.444,0,0,1-2.111-4.52c.038-7.178.016-14.357.018-21.536a8.7,8.7,0,0,1,3.35-7.112c3.429-2.795,6.84-5.616,10.167-8.53a18.1,18.1,0,0,0,5.926-10.117c.552-2.631.55-2.653-2.116-2.654q-19.248,0-38.5,0c-1.411,0-1.5.079-1.324,1.487a17.537,17.537,0,0,0,6.088,11.265c3.336,2.95,6.813,5.74,10.232,8.595a8.469,8.469,0,0,1,3.252,6.875q-.06,11.037,0,22.075a4.9,4.9,0,0,1-1.9,4.051c-4.476,3.688-8.921,7.414-13.4,11.1a2.407,2.407,0,0,1-1.36.527,40.428,40.428,0,0,0-4.893.025c-.488.07-.986-.024-1.478,0a.843.843,0,0,1-.652-.154.658.658,0,0,1-.145-.5c.065-3.675-.114-7.37.207-11.022a22.034,22.034,0,0,1,8.42-15.392q6.076-5.039,12.134-10.1c1.3-1.082,1.283-2.258-.031-3.355-4.292-3.584-8.633-7.112-12.861-10.769a22.305,22.305,0,0,1-7.871-17.234c-.046-2.721.025-5.444-.015-8.165-.012-.788.225-1.015,1.014-1.013C327.682,211.257,335.788,211.246,343.895,211.247Z" transform="translate(-318.561 -211.23)"/></g><path class="d" d="M433.532,283.339" transform="translate(-409.113 -263.596)"/><path class="e" d="M354.086,173.343h-55.9a.709.709,0,0,0-.709.709v4.062a.709.709,0,0,0,.709.709h1v1.723a.709.709,0,0,0,.709.709h52.478a.709.709,0,0,0,.709-.709v-1.723h1a.709.709,0,0,0,.709-.709v-4.062A.709.709,0,0,0,354.086,173.343Z" transform="translate(-297.48 -173.343)"/><path class="e" d="M298.189,643.706h55.9a.709.709,0,0,0,.709-.709v-4.062a.709.709,0,0,0-.709-.709h-1V636.5a.709.709,0,0,0-.709-.709H299.9a.709.709,0,0,0-.709.709v1.722h-1a.709.709,0,0,0-.709.709V643A.709.709,0,0,0,298.189,643.706Z" transform="translate(-297.48 -552.791)"/></g></g></g></svg>