<svg xmlns="http://www.w3.org/2000/svg" xmlns:xlink="http://www.w3.org/1999/xlink" width="369.157" height="56.154" viewBox="0 0 369.157 56.154"><defs><style>.a{fill:url(#a);}.b{fill:url(#b);}.c{fill:url(#c);}.d{fill:url(#d);}.e{fill:url(#e);}.f{isolation:isolate;}.g{fill:#366af7;}.h{fill:#343436;}</style><linearGradient id="a" x1="0.535" y1="0.248" x2="0.421" y2="0.865" gradientUnits="objectBoundingBox"><stop offset="0" stop-color="#366af7"/><stop offset="1" stop-color="#2350c9"/></linearGradient><linearGradient id="b" x1="0.583" x2="0.205" y2="0.925" gradientUnits="objectBoundingBox"><stop offset="0" stop-color="#fff"/><stop offset="1" stop-color="#d9d9d9"/></linearGradient><linearGradient id="c" x1="0.5" y1="0" x2="0.5" y2="1" xlink:href="#a"/><linearGradient id="d" x1="0.717" y1="0.188" x2="0.43" y2="0.963" xlink:href="#a"/><linearGradient id="e" x1="0.814" x2="-0.461" y2="0.571" gradientUnits="objectBoundingBox"><stop offset="0" stop-color="#fff"/><stop offset="1" stop-color="#c9c9c9"/></linearGradient></defs><g transform="translate(-345.637 -104.846)"><path class="a" d="M-2442.325-425.54a49.879,49.879,0,0,1,39.395,22.8c-11.833-7.487-21.489-8.222-25.1-8.107.575,1.232-4.849,9.56-4.849,9.56l-13.727-22.9Z" transform="translate(2804.375 559.894)"/><path class="b" d="M-2438.323-440.371s-7.78,1.423-7.868,3.611c-1.672,1.431.574,12.3,9.013,27.86-2.849-2.33-7.676-5.331-10.935-5.3-4.913-.142-6.7,7.623-6.7,7.623l-4.028-12.814,2.247-17.893,7.231-9.855,4.813,3.141Z" transform="translate(2808.698 567.52)"/><path class="c" d="M-2465.287-434.96a31.044,31.044,0,0,1,11.147-25.573c-.061-.081-1.437,2.006,2.148,5.805a61.745,61.745,0,0,0,12.194,9.391c-.587.569-2.309.316-4.221-.728a19.969,19.969,0,0,0-8.658-2.45c-.016.359,3.287,3.178,3.287,3.178l-3.287.179,3.287,3.323-4.75-1.3s-8.189,8.432-2.95,31.887C-2465.948-425-2465.287-434.96-2465.287-434.96Z" transform="translate(2811 572.251)"/><path class="d" d="M-2403.223-429.661s19.483-5.945,21.771-17.729-11.558-19.624-15.084-20.241-13.18-2.112-20.3,5.982c4.2.513,9.684,1.8,13.611,8.454,8.334,12.791-3.179,21.415-3.179,21.415Z" transform="translate(2791.277 573)"/><path class="e" d="M12.77,10.268l-.357,2.884C8.621,8.06,3.786,6.967,0,6.5,7.118-1.59,16.771-.094,20.3.522c1.5.263,4.876,1.835,8.079,4.466l-.527,4.565-8.6-4.813,2.414,9.87Z" transform="translate(374.443 104.846)"/></g><g transform="translate(74.957 8.007)"><g class="f"><g class="f"><path class="g" d="M154.952,136.955a9.671,9.671,0,0,1-2.236-8.51H155.2a7.91,7.91,0,0,0,1.8,6.895,8.185,8.185,0,0,0,6.584,3.044,15.3,15.3,0,0,0,8.634-2.423,9.3,9.3,0,0,0,4.41-6.087,5.034,5.034,0,0,0-1.925-5.093A13.03,13.03,0,0,0,167.5,122.3q-5.776-.5-8.7-3.354a7.181,7.181,0,0,1-2.174-7.019,11.245,11.245,0,0,1,4.845-7.143,16.174,16.174,0,0,1,9.441-2.795,12.04,12.04,0,0,1,8.509,3.167,7.408,7.408,0,0,1,2.608,7.205h-2.484a5.69,5.69,0,0,0-2.174-5.59,10.244,10.244,0,0,0-6.957-2.422,13.126,13.126,0,0,0-7.454,2.111,8.382,8.382,0,0,0-3.851,5.466,5.04,5.04,0,0,0,1.987,5.218q2.546,2.112,7.454,2.546,5.59.5,8.509,3.292a7.092,7.092,0,0,1,2.05,6.895,12.05,12.05,0,0,1-5.4,7.765,18.5,18.5,0,0,1-10.559,3.043A10.373,10.373,0,0,1,154.952,136.955Z" transform="translate(-152.504 -101.986)"/><path class="g" d="M184.827,113.29h2.36l2.981,23.168,10.745-23.168h2.8l1.615,22.671,12.05-22.671H219.8l-14.038,26.46H203.4l-1.8-22.919L190.666,139.75h-2.36Z" transform="translate(-152.504 -101.986)"/><path class="g" d="M219.361,139.75l5.28-26.46h2.484l-5.28,26.46Zm7.392-36.832h2.484l-.808,3.788h-2.484Z" transform="translate(-152.504 -101.986)"/><path class="g" d="M230.354,139.75l4.783-23.789h-4.162l.435-2.422h4.162l.994-4.969a7.054,7.054,0,0,1,6.895-5.652h1.491l-.435,1.925h-1.429a3.823,3.823,0,0,0-2.609,1.057,4.819,4.819,0,0,0-1.428,2.671l-.994,4.969h4.721l-.435,2.422h-4.721l-4.783,23.789Z" transform="translate(-152.504 -101.986)"/><path class="g" d="M243.833,138.942a4.963,4.963,0,0,1-.745-3.913l3.975-19.813h-3.789l.373-1.926h3.789l1.491-7.516h2.484l-1.49,7.516h3.6l-.373,1.926h-3.6l-3.975,19.813a3.673,3.673,0,0,0,.311,2.609,1.754,1.754,0,0,0,1.615,1.18,4.384,4.384,0,0,0,1.987-.435l-.311,1.8a7.369,7.369,0,0,1-2.236.5A3.6,3.6,0,0,1,243.833,138.942Z" transform="translate(-152.504 -101.986)"/><path class="g" d="M253.646,139.75l7.392-36.832h2.484L256.13,139.75Z" transform="translate(-152.504 -101.986)"/><path class="g" d="M261.348,147.824h1.925q1.491,0,3.6-2.235A29.767,29.767,0,0,0,271.1,139.5l-4.907-26.212h2.3l4.41,23.168,13.54-23.168h2.423l-17.205,29.317a17.614,17.614,0,0,1-4.037,5.155,6.717,6.717,0,0,1-4.286,1.925h-2.36Z" transform="translate(-152.504 -101.986)"/></g></g><g class="f"><g class="f"><path class="h" d="M299.129,138.875a10.283,10.283,0,0,1-4.275-3.4,8.7,8.7,0,0,1-1.6-5.024h4.85a6.38,6.38,0,0,0,2.025,4.125,7.262,7.262,0,0,0,5.175,1.675,7.56,7.56,0,0,0,5.125-1.625,5.272,5.272,0,0,0,1.875-4.175,4.739,4.739,0,0,0-1.1-3.25,7.03,7.03,0,0,0-2.75-1.9A43.147,43.147,0,0,0,304,123.9a39.13,39.13,0,0,1-5.525-1.8,8.884,8.884,0,0,1-3.55-2.824,8.3,8.3,0,0,1-1.476-5.176,8.969,8.969,0,0,1,1.45-5.05,9.451,9.451,0,0,1,4.075-3.4,14.334,14.334,0,0,1,6.025-1.2,12.623,12.623,0,0,1,8.024,2.45,9.054,9.054,0,0,1,3.525,6.5h-5a5.4,5.4,0,0,0-2.1-3.525,7.461,7.461,0,0,0-4.9-1.525,7.1,7.1,0,0,0-4.65,1.476,5.036,5.036,0,0,0-1.8,4.125,4.464,4.464,0,0,0,1.075,3.1,6.919,6.919,0,0,0,2.649,1.825q1.576.625,4.426,1.425a41.717,41.717,0,0,1,5.55,1.875,9.268,9.268,0,0,1,3.6,2.851,8.285,8.285,0,0,1,1.5,5.225,9.179,9.179,0,0,1-1.35,4.8,9.922,9.922,0,0,1-4,3.65,13.2,13.2,0,0,1-6.25,1.4A14.893,14.893,0,0,1,299.129,138.875Z" transform="translate(-152.504 -101.986)"/><path class="h" d="M329.153,116.1v16.15a3.838,3.838,0,0,0,.85,2.825,4.19,4.19,0,0,0,2.95.825h3.35v3.85h-4.1q-3.8,0-5.7-1.75t-1.9-5.75V116.1h-3.551v-3.75H324.6v-6.9h4.55v6.9H336.3v3.75Z" transform="translate(-152.504 -101.986)"/><path class="h" d="M341.8,118.575a12.334,12.334,0,0,1,4.675-4.925,12.819,12.819,0,0,1,6.625-1.75,12.158,12.158,0,0,1,6.25,1.55,10.332,10.332,0,0,1,3.95,3.9v-5h4.6v27.4h-4.6v-5.1a10.722,10.722,0,0,1-4.024,3.975,12.048,12.048,0,0,1-6.226,1.575,12.423,12.423,0,0,1-6.6-1.8,12.609,12.609,0,0,1-4.65-5.051,15.718,15.718,0,0,1-1.7-7.4,15.388,15.388,0,0,1,1.7-7.375Zm20.25,2.024a8.832,8.832,0,0,0-3.375-3.524,9.569,9.569,0,0,0-9.325-.025,8.712,8.712,0,0,0-3.35,3.5,11.137,11.137,0,0,0-1.25,5.4,11.388,11.388,0,0,0,1.25,5.475,8.843,8.843,0,0,0,3.35,3.55A9.055,9.055,0,0,0,354,136.2a9.188,9.188,0,0,0,4.675-1.226,8.783,8.783,0,0,0,3.375-3.55A11.287,11.287,0,0,0,363.3,126a11.148,11.148,0,0,0-1.25-5.4Z" transform="translate(-152.504 -101.986)"/><path class="h" d="M384.253,113.45a12.128,12.128,0,0,1,6.149-1.55,12.783,12.783,0,0,1,6.65,1.75,12.4,12.4,0,0,1,4.65,4.925,15.4,15.4,0,0,1,1.7,7.375,15.728,15.728,0,0,1-1.7,7.4,12.466,12.466,0,0,1-11.3,6.851,12.191,12.191,0,0,1-6.225-1.55,10.551,10.551,0,0,1-4.025-3.95v5.05H375.6v-37h4.55v14.7a10.764,10.764,0,0,1,4.1-4Zm13.25,7.1a8.668,8.668,0,0,0-3.375-3.5,9.348,9.348,0,0,0-4.675-1.2,9.1,9.1,0,0,0-4.625,1.226,8.951,8.951,0,0,0-3.4,3.55,12.069,12.069,0,0,0,0,10.8,8.945,8.945,0,0,0,3.4,3.55,9.089,9.089,0,0,0,4.625,1.226,9.19,9.19,0,0,0,4.675-1.226,8.8,8.8,0,0,0,3.375-3.55,11.4,11.4,0,0,0,1.25-5.475,11.148,11.148,0,0,0-1.25-5.4Z" transform="translate(-152.504 -101.986)"/><path class="h" d="M413.952,102.75v37H409.4v-37Z" transform="translate(-152.504 -101.986)"/><path class="h" d="M446.552,127.75h-21.9a8.612,8.612,0,0,0,8.9,8.6,8.4,8.4,0,0,0,4.925-1.375,7.279,7.279,0,0,0,2.775-3.675h4.9a11.773,11.773,0,0,1-4.4,6.425,13.279,13.279,0,0,1-8.2,2.476,13.846,13.846,0,0,1-6.975-1.75,12.38,12.38,0,0,1-4.825-4.976A15.42,15.42,0,0,1,420,126a15.647,15.647,0,0,1,1.7-7.45,11.936,11.936,0,0,1,4.774-4.925,14.209,14.209,0,0,1,7.075-1.725,13.759,13.759,0,0,1,6.9,1.7,11.78,11.78,0,0,1,4.625,4.676A13.81,13.81,0,0,1,446.7,125a26.894,26.894,0,0,1-.15,2.75Zm-5.7-8.175a7.484,7.484,0,0,0-3.125-2.851,9.755,9.755,0,0,0-4.375-.975,8.432,8.432,0,0,0-5.875,2.2,8.957,8.957,0,0,0-2.774,6.1H442a8.4,8.4,0,0,0-1.15-4.475Z" transform="translate(-152.504 -101.986)"/></g></g></g></svg>